<?xml version="1.0" encoding="UTF-8"?>
<!DOCTYPE svg PUBLIC "-//W3C//DTD SVG 1.1//EN" "http://www.w3.org/Graphics/SVG/1.1/DTD/svg11.dtd">
<!-- Creator: CorelDRAW 2019 (64-Bit) -->
<svg xmlns="http://www.w3.org/2000/svg" xml:space="preserve" width="8.26772in" height="1.9685in" version="1.1" style="shape-rendering:geometricPrecision; text-rendering:geometricPrecision; image-rendering:optimizeQuality; fill-rule:evenodd; clip-rule:evenodd"
viewBox="0 0 8267.72 1968.5"
 xmlns:xlink="http://www.w3.org/1999/xlink">
 <defs>
  <style type="text/css">
   <![CDATA[
    .fil1 {fill:#FEFEFE;fill-rule:nonzero}
    .fil0 {fill:#D2D3D5;fill-rule:nonzero}
    .fil2 {fill:#FCBE0B;fill-rule:nonzero}
   ]]>
  </style>
 </defs>
 <g id="Layer_x0020_1">
  <metadata id="CorelCorpID_0Corel-Layer"/>
  <g id="_2504885411152">
   <path class="fil0" d="M7347.28 672.31c-26.02,0 -46.84,-8.24 -62.45,-24.72 -15.61,-16.48 -23.42,-37.29 -23.42,-62.45 0,-33.82 9.76,-60.93 29.28,-81.31 19.52,-20.39 44.89,-30.57 76.11,-30.57 26.02,0 46.84,8.24 62.45,24.72 15.61,16.48 23.42,38.59 23.42,66.35 0,32.09 -9.97,58.11 -29.92,78.06 -19.95,19.95 -45.1,29.93 -75.46,29.93z"/>
   <path class="fil1" d="M7823.46 1328.04c-45.1,58.11 -101.48,87.17 -169.14,87.17 -60.72,0 -105.82,-18.65 -135.31,-55.94 -29.49,-37.3 -44.24,-96.28 -44.24,-176.94 0,-77.19 16.7,-148.75 50.09,-214.67 33.39,-65.93 77.19,-116.66 131.4,-152.23 54.22,-35.56 113.85,-53.34 178.9,-53.34 38.16,0 78.06,5.85 119.7,17.56 41.63,11.71 79.36,27.98 113.19,48.79l-67.65 409.83c-2.6,13.01 -3.9,27.32 -3.9,42.94 0,41.63 6.07,78.06 18.21,109.29 -27.76,15.61 -59.85,23.42 -96.28,23.42 -58.11,0 -89.78,-28.62 -94.98,-85.87zm2.6 -435.86c-32.09,0 -62.02,13.23 -89.77,39.69 -27.76,26.46 -49.01,61.15 -63.76,104.09 -14.74,42.93 -22.11,90.85 -22.11,143.77 0,68.52 23.42,102.78 70.26,102.78 19.08,0 36.87,-5.86 53.34,-17.57 16.48,-11.71 30.36,-27.76 41.63,-48.14 11.28,-20.38 19.09,-43.15 23.42,-68.31l40.33 -240.7c-16.48,-10.41 -34.26,-15.61 -53.34,-15.61z"/>
   <path class="fil1" d="M7237.99 780.3c20.82,-3.47 42.07,-5.2 63.75,-5.2 31.22,0 55.08,7.81 71.56,23.42 16.48,15.61 24.72,38.16 24.72,67.65 0,5.21 -0.87,14.75 -2.6,28.63l-57.24 343.48c-4.34,24.29 -6.51,46.84 -6.51,67.65 0,30.36 4.77,58.55 14.31,84.57 -27.76,15.61 -57.68,23.42 -89.78,23.42 -38.16,0 -65.05,-7.59 -80.67,-22.77 -15.61,-15.18 -23.42,-40.11 -23.42,-74.81 0,-6.94 0.87,-16.48 2.6,-28.62l83.27 -507.41z"/>
   <path class="fil1" d="M7035.02 978.06c-11.28,-45.1 -38.17,-67.65 -80.67,-67.65 -27.76,0 -51.61,11.06 -71.56,33.17 -19.95,22.12 -33.39,53.13 -40.33,93.03l-59.85 359.09 -175.64 0 101.48 -615.4c17.35,-3.47 39.04,-5.2 65.06,-5.2 52.04,0 83.26,25.15 93.67,75.46 30.35,-32.09 57.9,-54.21 82.62,-66.35 24.72,-12.15 51.39,-18.22 80.02,-18.22 33.83,0 59.41,8.02 76.76,24.07 17.34,16.04 26.02,38.38 26.02,67 0,26.89 -7.37,49.66 -22.12,68.3 -14.74,18.65 -39.9,36.22 -75.46,52.69z"/>
   <path class="fil1" d="M6435.23 1200.54c44.24,21.69 66.36,49.01 66.36,81.96 0,30.36 -16.48,56.81 -49.44,79.36 -51.18,35.56 -115.37,53.34 -192.56,53.34 -82.4,0 -145.29,-22.55 -188.66,-67.65 -43.36,-45.1 -65.05,-108.85 -65.05,-191.26 0,-77.2 15.83,-146.15 47.49,-206.87 31.66,-60.71 74.37,-107.12 128.15,-139.21 53.78,-32.09 114.5,-48.14 182.15,-48.14 57.25,0 103,15.18 137.26,45.54 34.26,30.36 51.4,70.26 51.4,119.7 0,75.46 -29.49,133.14 -88.47,173.04 -58.98,39.9 -140.52,59.85 -244.6,59.85 -19.95,0 -34.7,-0.43 -44.24,-1.3l0 7.81c0,35.56 10.19,63.97 30.58,85.22 20.38,21.25 46.19,31.88 77.41,31.88 29.49,0 56.38,-6.5 80.67,-19.52 24.29,-13.02 48.14,-34.26 71.56,-63.75zm-209.47 -144.42c47.7,0 87.82,-9.98 120.35,-29.93 32.53,-19.95 48.79,-45.97 48.79,-78.06 0,-17.35 -4.99,-30.8 -14.96,-40.34 -9.97,-9.54 -24.5,-14.31 -43.58,-14.31 -35.56,0 -66.57,14.31 -93.03,42.94 -26.46,28.62 -45.32,68.09 -56.59,118.4 10.41,0.87 23.42,1.3 39.03,1.3z"/>
   <path class="fil1" d="M5521.89 1691.04c-45.11,0 -82.19,-4.12 -111.24,-12.36 -29.06,-8.24 -54.86,-21.9 -77.42,-40.98 -13.01,-10.41 -22.33,-21.25 -27.97,-32.52 -5.64,-11.28 -8.46,-24.29 -8.46,-39.04 0,-16.48 5.43,-32.96 16.26,-49.44 10.85,-16.48 25.8,-30.36 44.89,-41.64 39.03,54.65 93.68,81.97 163.93,81.97 44.24,0 79.58,-14.1 106.04,-42.28 26.45,-28.19 43.59,-69.17 51.39,-122.95l7.81 -53.34c-19.95,21.68 -44.24,38.59 -72.86,50.74 -28.63,12.14 -58.12,18.21 -88.47,18.21 -124.9,0 -187.35,-77.63 -187.35,-232.89 0,-76.32 17.13,-146.58 51.39,-210.77 34.26,-64.19 78.93,-113.84 134.01,-148.97 55.07,-35.13 115.15,-52.69 180.19,-52.69 85.87,0 164.8,22.12 236.8,66.35l-85.87 519.12c-19.09,115.36 -56.17,201.45 -111.24,258.26 -55.08,56.81 -129.02,85.22 -221.83,85.22zm234.19 -783.24c-16.48,-10.41 -36.86,-15.61 -61.15,-15.61 -32.09,0 -62.02,13.02 -89.78,39.04 -27.76,26.02 -49.01,59.85 -63.75,101.48 -14.74,41.63 -22.12,88.04 -22.12,139.21 0,68.52 24.72,102.78 74.16,102.78 20.82,0 39.68,-5.85 56.6,-17.57 16.91,-11.71 31.22,-27.76 42.93,-48.14 11.71,-20.38 19.74,-43.15 24.07,-68.31l39.03 -232.89z"/>
   <path class="fil1" d="M5101.65 780.3c20.82,-3.47 42.07,-5.2 63.75,-5.2 31.22,0 55.08,7.81 71.56,23.42 16.48,15.61 24.72,38.16 24.72,67.65 0,5.21 -0.87,14.75 -2.6,28.63l-57.24 343.48c-4.34,24.29 -6.51,46.84 -6.51,67.65 0,30.36 4.77,58.55 14.31,84.57 -27.75,15.61 -57.68,23.42 -89.77,23.42 -38.17,0 -65.06,-7.59 -80.67,-22.77 -15.61,-15.18 -23.42,-40.11 -23.42,-74.81 0,-6.94 0.87,-16.48 2.61,-28.62l83.27 -507.41z"/>
   <path class="fil1" d="M4509.67 1395.7l-175.64 0 101.48 -615.4c17.35,-3.47 39.03,-5.2 65.05,-5.2 25.15,0 44.89,5.42 59.2,16.26 14.31,10.85 25.37,28.41 33.18,52.7 26.89,-28.63 54.86,-49.44 83.92,-62.45 29.06,-13.01 61.37,-19.52 96.93,-19.52 36.43,0 67.22,8.24 92.38,24.72 25.15,16.48 42.94,39.03 53.34,67.65 8.67,23.42 13.01,51.18 13.01,83.27 0,26.02 -3.04,56.38 -9.11,91.08l-61.15 366.9 -175.64 0 61.15 -366.9c3.46,-17.35 5.2,-35.13 5.2,-53.34 0,-25.16 -5.64,-43.37 -16.91,-54.65 -11.28,-11.28 -28.62,-16.91 -52.04,-16.91 -27.76,0 -52.04,11.49 -72.86,34.48 -20.81,22.98 -34.26,53.13 -40.33,90.43l-61.15 366.9z"/>
   <path class="fil0" d="M6837.78 1780.88c-9.51,0 -17.18,-3.24 -23.02,-9.72 -5.83,-6.48 -8.75,-14.91 -8.75,-25.29 0,-12.53 3.78,-23.02 11.35,-31.44 7.56,-8.43 17.39,-12.64 29.5,-12.64 9.51,0 17.18,3.24 23.01,9.72 5.84,6.48 8.76,14.91 8.76,25.28 0,12.54 -3.78,23.02 -11.35,31.44 -7.57,8.43 -17.4,12.65 -29.5,12.65zm295.64 -77.8c9.07,6.48 13.61,13.83 13.61,22.04 0,6.48 -3.67,13.83 -11.02,22.05 -21.61,22.47 -51.65,33.71 -90.12,33.71 -36.31,0 -64.61,-10.81 -84.93,-32.42 -20.31,-21.61 -30.47,-52.08 -30.47,-91.41 0,-38.47 7.45,-72.72 22.37,-102.76 14.91,-30.04 34.69,-53.37 59.32,-70.02 24.64,-16.64 51.44,-24.96 80.4,-24.96 36.3,0 63.32,11.67 81.04,35.01 4.32,5.62 6.48,11.67 6.48,18.15 0,6.05 -1.3,11.02 -3.89,14.91 -2.59,3.89 -7.35,7.78 -14.26,11.67l-10.37 5.83c-5.19,-14.26 -12.97,-24.75 -23.34,-31.44 -10.37,-6.7 -23.78,-10.05 -40.2,-10.05 -19.02,0 -36.41,7.24 -52.19,21.72 -15.78,14.48 -27.99,33.28 -36.63,56.41 -8.64,23.13 -12.96,48.09 -12.96,74.88 0,25.07 5.94,44.84 17.83,59.32 11.88,14.48 27.98,21.72 48.3,21.72 28.1,0 52.3,-13.4 72.61,-40.2l8.43 5.83zm178.94 77.8c-35.01,0 -62.02,-11.13 -81.04,-33.39 -19.02,-22.26 -28.53,-52.41 -28.53,-90.44 0,-37.17 7.24,-71.21 21.72,-102.11 14.48,-30.91 33.82,-54.57 58.02,-71 24.2,-16.42 51.44,-24.64 81.69,-24.64 22.91,0 42.47,5.08 58.67,15.24 16.21,10.16 28.63,24.75 37.28,43.76 8.64,19.02 12.96,40.63 12.96,64.83 0,37.61 -7.02,71.86 -21.07,102.76 -14.05,30.91 -33.07,54.46 -57.06,70.67 -23.99,16.21 -51.54,24.31 -82.66,24.31zm-53.81 -123.19c0,24.64 5.19,44.09 15.56,58.35 10.37,14.27 24.85,21.4 43.44,21.4 19.88,0 37.39,-7.02 52.52,-21.07 15.13,-14.05 26.8,-32.74 35.01,-56.08 8.21,-23.34 12.31,-49.27 12.31,-77.8 0,-24.64 -5.3,-44.09 -15.89,-58.35 -10.59,-14.26 -25.17,-21.4 -43.76,-21.4 -19.45,0 -36.74,6.92 -51.87,20.75 -15.13,13.83 -26.8,32.52 -35.01,56.08 -8.21,23.56 -12.31,49.6 -12.31,78.12zm359.83 -151.71c12.96,-15.13 27.77,-26.69 44.41,-34.68 16.65,-8 33.82,-12 51.54,-12 16.86,0 31.34,4.32 43.44,12.97 12.1,8.65 20.31,20.53 24.64,35.66 15.56,-17.72 31.44,-30.26 47.65,-37.6 16.21,-7.35 34.9,-11.02 56.08,-11.02 24.64,0 43.76,7.78 57.37,23.34 13.61,15.56 20.42,36.53 20.42,62.89 0,13.83 -1.51,29.17 -4.54,46.04l-29.82 179.59 -55.11 0 29.83 -179.59c2.59,-13.83 3.89,-26.15 3.89,-36.96 0,-15.12 -3.78,-26.79 -11.35,-35.01 -7.56,-8.21 -18.26,-12.32 -32.09,-12.32 -21.18,0 -38.9,6.59 -53.17,19.78 -14.26,13.18 -23.34,31.66 -27.23,55.43l-30.47 188.67 -55.76 0 29.82 -179.59c2.16,-12.97 3.24,-24.21 3.24,-33.72 0,-13.83 -3.67,-25.71 -11.02,-35.66 -7.35,-9.94 -16.43,-14.91 -27.23,-14.91 -20.31,0 -38.57,7.35 -54.79,22.04 -16.2,14.7 -26.25,33.71 -30.15,57.06l-31.12 184.78 -55.11 0 50.57 -305.37c4.32,-0.86 8.21,-1.3 11.67,-1.3 22.91,0 34.37,11.24 34.37,33.72l0 7.78z"/>
   <path class="fil0" d="M992.89 591.65c0,-43.37 13.01,-77.63 39.04,-102.78 26.02,-25.15 60.71,-37.73 104.08,-37.73 32.96,0 60.5,10.19 82.62,30.57 22.12,20.38 33.18,44.89 33.18,73.51 0,43.37 -13.01,77.63 -39.04,102.78 -26.02,25.15 -60.71,37.73 -104.08,37.73 -33.83,0 -61.58,-10.19 -83.27,-30.57 -21.69,-20.38 -32.53,-44.89 -32.53,-73.51z"/>
   <path class="fil1" d="M3959.31 1145.89c1.74,27.76 9.76,49.66 24.07,65.7 14.31,16.05 33.61,24.07 57.9,24.07 28.62,0 53.34,-6.29 74.16,-18.87 20.81,-12.57 39.46,-32.31 55.94,-59.2 36.43,11.28 62.67,25.15 78.71,41.63 16.05,16.48 24.07,37.3 24.07,62.45 0,39.03 -15.61,69.83 -46.84,92.38 -26.02,19.95 -57.46,35.13 -94.33,45.54 -36.86,10.41 -76.11,15.61 -117.74,15.61 -88.47,0 -157.87,-24.07 -208.17,-72.21 -50.31,-48.13 -75.46,-113.41 -75.46,-195.81 0,-79.8 15.61,-150.06 46.84,-210.77 31.22,-60.72 74.81,-106.91 130.76,-138.56 55.95,-31.66 122.08,-47.49 198.41,-47.49 45.97,0 85,7.37 117.09,22.12 32.09,14.74 56.81,35.35 74.16,61.8 17.35,26.45 26.02,56.16 26.02,89.12 0,71.99 -27.32,127.07 -81.97,165.23 -54.64,38.17 -130.97,57.24 -228.98,57.24l-54.65 0zm13.01 -121c7.81,0.87 16.91,1.3 27.32,1.3 32.96,0 60.28,-6.72 81.97,-20.17 21.68,-13.44 32.52,-31.44 32.52,-54 0,-24.28 -13.44,-36.43 -40.33,-36.43 -52.91,0 -86.74,36.43 -101.48,109.29z"/>
   <path class="fil1" d="M2781.86 773.79c32.09,-6.94 65.05,-10.41 98.88,-10.41 37.3,0 67.22,5.64 89.77,16.91 22.56,11.28 36,27.32 40.33,48.14 26.02,-27.76 52.91,-47.7 80.67,-59.85 27.76,-12.15 58.98,-18.22 93.68,-18.22 39.03,0 71.12,7.37 96.28,22.12 25.15,14.74 42.07,35.56 50.74,62.45 30.36,-32.96 59.85,-55.29 88.47,-67 28.62,-11.71 62.88,-17.57 102.78,-17.57 49.44,0 87.39,15.18 113.84,45.54 26.46,30.35 39.68,72.43 39.68,126.2 0,26.02 -4.33,62.45 -13.01,109.29l-35.13 209.47c-5.2,31.22 -7.81,55.51 -7.81,72.86 0,28.62 2.6,51.61 7.81,68.96 -38.17,18.21 -81.1,27.32 -128.8,27.32 -46.84,0 -80.67,-8.24 -101.48,-24.72 -20.82,-16.48 -31.22,-43.8 -31.22,-81.97 0,-6.94 0.43,-13.44 1.3,-19.51 0.87,-6.07 1.74,-12.15 2.6,-18.22l42.94 -252.4c0.87,-4.34 1.52,-9.11 1.95,-14.31 0.44,-5.2 0.65,-9.97 0.65,-14.31 0,-13.01 -2.6,-21.91 -7.8,-26.67 -5.2,-4.77 -13.01,-7.16 -23.42,-7.16 -15.61,0 -27.97,5.85 -37.08,17.57 -9.11,11.71 -15.83,30.14 -20.17,55.3l-62.45 372.1 -252.41 0 63.75 -382.51c0.87,-4.34 1.52,-9.11 1.95,-14.31 0.44,-5.2 0.65,-9.97 0.65,-14.31 0,-13.01 -2.39,-21.91 -7.16,-26.67 -4.77,-4.77 -12.79,-7.16 -24.07,-7.16 -29.49,0 -47.7,19.95 -54.65,59.85l-65.06 385.11 -252.41 0 105.39 -621.91z"/>
   <path class="fil1" d="M2425.37 773.79c32.09,-6.94 66.35,-10.41 102.78,-10.41 89.34,0 134.01,36.43 134.01,109.29 0,4.34 -0.22,8.46 -0.65,12.36 -0.43,3.9 -1.09,8.02 -1.95,12.36l-58.55 343.48c-5.2,29.49 -7.81,55.51 -7.81,78.06 0,25.15 2.6,46.41 7.81,63.75 -38.17,18.21 -81.1,27.32 -128.8,27.32 -47.7,0 -81.97,-8.46 -102.79,-25.37 -20.81,-16.91 -31.22,-44.46 -31.22,-82.62 0,-5.2 0.44,-11.06 1.3,-17.57 0.87,-6.5 1.74,-12.79 2.61,-18.87l83.27 -491.8z"/>
   <path class="fil1" d="M1919.25 576.03c32.09,-6.94 66.35,-10.41 102.78,-10.41 44.24,0 77.41,8.89 99.53,26.67 22.12,17.78 33.18,45.32 33.18,82.62 0,2.6 -0.22,5.85 -0.65,9.76 -0.43,3.9 -1.09,8.89 -1.95,14.96l-13.01 76.76 184.75 0 -31.23 193.85 -186.05 0 -28.62 173.04c-0.87,4.33 -1.3,9.54 -1.3,15.61 0,27.76 14.31,41.63 42.93,41.63 26.89,0 51.61,-17.78 74.16,-53.34 36.43,10.41 62.89,24.29 79.36,41.63 16.48,17.35 24.72,39.9 24.72,67.66 0,19.95 -3.47,37.3 -10.41,52.04 -6.94,14.75 -19.52,30.36 -37.73,46.84 -43.37,39.9 -103.22,59.85 -179.54,59.85 -80.67,0 -142.47,-18.65 -185.4,-55.95 -42.94,-37.3 -64.41,-92.37 -64.41,-165.23 0,-19.08 2.17,-43.8 6.51,-74.16l92.37 -543.84z"/>
   <path class="fil1" d="M1328.57 773.79c32.09,-6.94 65.48,-10.41 100.18,-10.41 37.3,0 67.22,5.64 89.77,16.91 22.56,11.28 36,27.32 40.33,48.14 21.69,-27.76 44.67,-47.7 68.96,-59.85 24.28,-12.15 52.48,-18.22 84.57,-18.22 32.96,0 58.33,8.02 76.11,24.07 17.78,16.04 26.67,38.81 26.67,68.3 0,36.43 -10.19,70.48 -30.57,102.13 -20.38,31.66 -50.52,58.76 -90.42,81.31 -17.35,-23.42 -31.66,-38.38 -42.94,-44.88 -11.28,-6.51 -25.15,-9.76 -41.63,-9.76 -19.95,0 -35.78,4.77 -47.49,14.31 -11.71,9.54 -19.3,23.42 -22.77,41.63l-62.45 368.2 -253.71 0 105.39 -621.91z"/>
   <path class="fil1" d="M972.08 773.79c32.09,-6.94 66.35,-10.41 102.78,-10.41 89.34,0 134.01,36.43 134.01,109.29 0,4.34 -0.22,8.46 -0.65,12.36 -0.43,3.9 -1.09,8.02 -1.95,12.36l-58.55 343.48c-5.2,29.49 -7.81,55.51 -7.81,78.06 0,25.15 2.6,46.41 7.81,63.75 -38.17,18.21 -81.1,27.32 -128.8,27.32 -47.7,0 -81.97,-8.46 -102.78,-25.37 -20.82,-16.91 -31.22,-44.46 -31.22,-82.62 0,-5.2 0.43,-11.06 1.3,-17.57 0.87,-6.5 1.73,-12.79 2.6,-18.87l83.27 -491.8z"/>
   <path class="fil1" d="M792.53 1236.97c-4.34,28.62 -6.51,55.08 -6.51,79.36 0,30.36 2.61,55.51 7.81,75.46 -37.3,11.27 -74.16,16.91 -110.59,16.91 -40.77,0 -70.04,-4.99 -87.82,-14.96 -17.78,-9.98 -32.31,-28.41 -43.59,-55.3 -25.15,27.76 -50.31,47.27 -75.46,58.55 -25.16,11.28 -57.25,16.91 -96.28,16.91 -56.38,0 -101.48,-21.68 -135.31,-65.05 -33.83,-43.37 -50.74,-102.35 -50.74,-176.94 0,-81.53 17.35,-154.61 52.04,-219.23 34.69,-64.62 81.96,-114.28 141.81,-148.97 59.85,-34.69 127.94,-52.04 204.26,-52.04 55.52,0 103.87,5.64 145.07,16.91 41.2,11.27 82.62,29.93 124.25,55.94l-68.96 412.44zm-201.67 -277.13c-9.54,-6.07 -21.25,-9.11 -35.13,-9.11 -22.56,0 -42.29,9.54 -59.2,28.62 -16.91,19.09 -30.14,44.24 -39.68,75.46 -9.54,31.22 -14.31,62.45 -14.31,93.68 0,51.17 17.78,76.76 53.34,76.76 32.96,0 52.91,-19.95 59.85,-59.85l35.13 -205.57zm0 0c-9.54,-6.07 -21.25,-9.11 -35.13,-9.11 -22.56,0 -42.29,9.54 -59.2,28.62 -16.91,19.09 -30.14,44.24 -39.68,75.46 -9.54,31.22 -14.31,62.45 -14.31,93.68 0,51.17 17.78,76.76 53.34,76.76 32.96,0 52.91,-19.95 59.85,-59.85l35.13 -205.57zm201.67 277.13c-4.34,28.62 -6.51,55.08 -6.51,79.36 0,30.36 2.61,55.51 7.81,75.46 -37.3,11.27 -74.16,16.91 -110.59,16.91 -40.77,0 -70.04,-4.99 -87.82,-14.96 -17.78,-9.98 -32.31,-28.41 -43.59,-55.3 -25.15,27.76 -50.31,47.27 -75.46,58.55 -25.16,11.28 -57.25,16.91 -96.28,16.91 -56.38,0 -101.48,-21.68 -135.31,-65.05 -33.83,-43.37 -50.74,-102.35 -50.74,-176.94 0,-81.53 17.35,-154.61 52.04,-219.23 34.69,-64.62 81.96,-114.28 141.81,-148.97 59.85,-34.69 127.94,-52.04 204.26,-52.04 55.52,0 103.87,5.64 145.07,16.91 41.2,11.27 82.62,29.93 124.25,55.94l-68.96 412.44z"/>
   <path class="fil2" d="M2505.85 613.72c196.67,-137.27 411.4,-242.59 636.45,-313.52 225.34,-71.02 461.09,-107.75 699.51,-107.75 245.18,0 487.53,38.87 718.66,113.89 230.9,74.94 450.33,185.97 649.92,330.37l-67.49 93.13c-189.84,-137.35 -398.5,-242.94 -617.97,-314.18 -219.25,-71.16 -449.61,-108.04 -683.11,-108.04 -227.04,0 -451.26,34.89 -665.31,102.35 -214.33,67.55 -418.44,167.58 -604.96,297.77l-65.69 -94.03z"/>
  </g>
 </g>
</svg>
